<?xml version="1.0" encoding="UTF-8"?>
<svg width="153px" height="35px" viewBox="0 0 153 35" version="1.1" xmlns="http://www.w3.org/2000/svg"
    xmlns:xlink="http://www.w3.org/1999/xlink">
    <g id="Mobile-" stroke="none" stroke-width="1" fill="none" fill-rule="evenodd">
        <g id="1.2.1-Map" transform="translate(-170.000000, -381.000000)">
            <g id="Kaart" transform="translate(-372.000000, 103.000000)">
                <g id="Millenium-Bridge" transform="translate(542.000000, 247.000000)">
                    <g id="Group-2" transform="translate(0.000000, 13.200001)">
                        <path
                            d="M4.75200017,17.8200006 L147.312005,17.8200006 C149.936462,17.8200006 152.064005,19.9475436 152.064005,22.5720008 L152.064005,43.9560015 C152.064005,46.5804588 149.936462,48.7080017 147.312005,48.7080017 L83.3076726,48.7080017 C82.4464719,48.7080017 81.6143987,49.0198353 80.9653176,49.5858392 L78.3743577,51.8451767 C77.0321107,53.0156266 75.0318946,53.0156266 73.6896476,51.8451767 L71.0986877,49.5858392 C70.4496066,49.0198353 69.6175334,48.7080017 68.7563327,48.7080017 L4.75200017,48.7080017 C2.12754294,48.7080017 3.87411699e-15,46.5804588 0,43.9560015 L0,22.5720008 C-1.20958173e-15,19.9475436 2.12754294,17.8200006 4.75200017,17.8200006 Z"
                            id="Rectangle" fill="#0F5B69"></path>
                    </g>
                </g>
            </g>
        </g>
    </g>
</svg>