<?xml version="1.0" encoding="UTF-8"?>
<svg width="23px" height="25px" viewBox="0 0 23 25" version="1.1" xmlns="http://www.w3.org/2000/svg"
    xmlns:xlink="http://www.w3.org/1999/xlink">
    <title>Group 6</title>
    <defs>
        <path
            d="M365,0 L660,0 C671.045695,-2.02906125e-15 680,8.954305 680,20 L680,384 L680,384 L345,384 L345,20 C345,8.954305 353.954305,2.02906125e-15 365,0 Z"
            id="path-1"></path>
        <filter x="-4.0%" y="-5.9%" width="110.4%" height="109.1%" filterUnits="objectBoundingBox" id="filter-2">
            <feOffset dx="4" dy="-5" in="SourceAlpha" result="shadowOffsetOuter1"></feOffset>
            <feGaussianBlur stdDeviation="5" in="shadowOffsetOuter1" result="shadowBlurOuter1"></feGaussianBlur>
            <feColorMatrix values="0 0 0 0 0.262745098   0 0 0 0 0.184313725   0 0 0 0 0.141176471  0 0 0 0.11756993 0"
                type="matrix" in="shadowBlurOuter1"></feColorMatrix>
        </filter>
        <filter id="filter-3">
            <feColorMatrix in="SourceGraphic" type="matrix"
                values="0 0 0 0 1.000000 0 0 0 0 1.000000 0 0 0 0 1.000000 0 0 0 1.000000 0"></feColorMatrix>
        </filter>
    </defs>
    <g id="Mobile-" stroke="none" stroke-width="1" fill="none" fill-rule="evenodd">
        <g id="1.2.1-Map" transform="translate(-38.000000, -716.000000)">
            <g id="Card" transform="translate(-325.000000, 653.000000)">
                <g id="Group-6" transform="translate(363.000000, 60.000000)" filter="url(#filter-3)">
                    <g transform="translate(0.000000, 3.000000)">
                        <path
                            d="M21.0338475,14.6883886 L19.7474122,15.9400874 L18.4947498,14.687425 C18.2583071,14.4162286 17.8182286,14.4162286 17.5470569,14.687425 C17.2758604,14.9586215 17.2758604,15.3639462 17.5470569,15.635118 L19.307351,17.3954122 C19.5785475,17.6666086 19.9838722,17.6666086 20.255044,17.3954122 L22.0153381,15.635118 C22.2865346,15.3639215 22.2865346,14.9585968 22.0153381,14.687425 C21.7103687,14.4171921 21.2712711,14.4171921 21.0338475,14.688391 L21.0338475,14.6883886 Z"
                            id="Fill-1" fill="#000000"></path>
                        <path
                            d="M7.66549429,6.7353178 C8.95192962,6.7353178 9.96719317,5.68628131 9.96719317,4.43361892 C9.96719317,3.18095654 8.91815667,2.13192005 7.66549429,2.13192005 C6.37905897,2.13192005 5.36379542,3.18095654 5.36379542,4.43361892 C5.36379542,5.68628131 6.37905897,6.7353178 7.66549429,6.7353178 Z M7.66549429,3.48600008 C8.17312607,3.48600008 8.61318725,3.92606127 8.61318725,4.43369304 C8.61318725,4.94132482 8.17312607,5.381386 7.66549429,5.381386 C7.15786252,5.381386 6.71780133,4.94132482 6.71780133,4.43369304 C6.71780133,3.92606127 7.12408957,3.48600008 7.66549429,3.48600008 Z"
                            id="Fill-2" fill="#000000"></path>
                        <path
                            d="M4.99231776,15.8386945 L5.05987353,15.8386945 L5.05987353,21.896577 C5.05987353,22.2690928 5.36484295,22.5730987 5.73639472,22.5730987 L9.59471245,22.5740637 C9.96722776,22.5740637 10.2712336,22.2690942 10.2712336,21.897543 L10.2712336,15.8389193 L10.3387894,15.8389193 C10.7113047,15.8389193 11.0153106,15.5339499 11.0153106,15.1623981 L11.0162766,10.4576568 C11.0162766,8.59601914 9.52717892,7.10704498 7.66566476,7.10704498 C5.8041506,7.10704498 4.31505292,8.59614267 4.31505292,10.4576568 L4.31505292,15.1275628 C4.31505292,15.5338511 4.62002234,15.8388205 4.99253764,15.8388205 L4.99231776,15.8386945 Z M8.91832961,21.2198828 L8.34315195,21.2198828 L8.34315195,18.7154475 C8.34315195,18.3429322 8.03818254,18.0389263 7.66663076,18.0389263 C7.29411546,18.0389263 6.99010957,18.3438957 6.99010957,18.7154475 L6.99010957,21.2198828 L6.41493191,21.2198828 L6.41300238,15.8386945 L8.91842597,15.8386945 L8.91832961,21.2198828 Z M5.66901189,10.4575061 C5.66901189,9.34092374 6.58293191,8.46077666 7.66574135,8.46077666 C8.78232373,8.46077666 9.66247081,9.37469668 9.66247081,10.4575061 L9.66247081,14.450965 L5.66901189,14.450965 L5.66901189,10.4575061 Z"
                            id="Fill-3" fill="#000000"></path>
                        <path
                            d="M14.5698003,0.168886945 L0.727835064,0.168886945 C0.355319761,0.168886945 0.0513138718,0.473856364 0.0513138718,0.845408137 L0.0513138718,23.8594324 C0.0513138718,24.2319475 0.35628329,24.5359535 0.727835064,24.5359535 L14.5698003,24.5359535 C14.9423156,24.5359535 15.2463215,24.2309842 15.2463215,23.8594324 L15.2463215,0.845408137 C15.2463215,0.473856364 14.9760886,0.168886945 14.5698003,0.168886945 Z M13.8932791,23.182911 L1.40420827,23.182911 L1.40420827,1.52276933 L13.8922909,1.52276933 L13.8932791,23.182911 Z"
                            id="Fill-4" fill="#000000"></path>
                        <path
                            d="M18.4955651,10.0174943 L19.7482275,8.76483196 L21.0008899,10.0174943 C21.2373326,10.2886908 21.6774111,10.2886908 21.9485829,10.0174943 C22.2197546,9.74629787 22.2197793,9.34097315 21.9485829,9.06980138 L20.1882887,7.30950722 C19.9170922,7.03831075 19.5117675,7.03831075 19.2405957,7.30950722 L17.4803016,9.06980138 C17.2091051,9.34099786 17.2091051,9.74632257 17.4803016,10.0174943 C17.7843075,10.2886908 18.2243686,10.2886908 18.4955651,10.0174943 Z"
                            id="Fill-5" fill="#000000"></path>
                    </g>
                </g>
            </g>
        </g>
    </g>
</svg>