<?xml version="1.0" encoding="UTF-8"?>
<svg width="28px" height="23px" viewBox="0 0 28 23" version="1.1" xmlns="http://www.w3.org/2000/svg"
    xmlns:xlink="http://www.w3.org/1999/xlink">
    <title>Group 4</title>
    <defs>
        <path
            d="M365,0 L660,0 C671.045695,-2.02906125e-15 680,8.954305 680,20 L680,384 L680,384 L345,384 L345,20 C345,8.954305 353.954305,2.02906125e-15 365,0 Z"
            id="path-1"></path>
        <filter x="-4.0%" y="-5.9%" width="110.4%" height="109.1%" filterUnits="objectBoundingBox" id="filter-2">
            <feOffset dx="4" dy="-5" in="SourceAlpha" result="shadowOffsetOuter1"></feOffset>
            <feGaussianBlur stdDeviation="5" in="shadowOffsetOuter1" result="shadowBlurOuter1"></feGaussianBlur>
            <feColorMatrix values="0 0 0 0 0.262745098   0 0 0 0 0.184313725   0 0 0 0 0.141176471  0 0 0 0.11756993 0"
                type="matrix" in="shadowBlurOuter1"></feColorMatrix>
        </filter>
        <filter id="filter-3">
            <feColorMatrix in="SourceGraphic" type="matrix"
                values="0 0 0 0 1.000000 0 0 0 0 1.000000 0 0 0 0 1.000000 0 0 0 1.000000 0"></feColorMatrix>
        </filter>
    </defs>
    <g id="Mobile-" stroke="none" stroke-width="1" fill="none" fill-rule="evenodd">
        <g id="1.2.1-Map" transform="translate(-35.000000, -757.000000)">
            <g id="Card" transform="translate(-325.000000, 653.000000)">
                <g id="Group-4" transform="translate(361.000000, 98.000000)" filter="url(#filter-3)">
                    <g transform="translate(0.000000, 7.000000)">
                        <path
                            d="M22.8340544,9.4467156 C24.6109775,9.4467156 26.0917467,7.99603557 26.0917467,6.18902322 C26.0917467,4.38201087 24.6410667,2.93133084 22.8340544,2.93133084 L19.1611543,2.93133084 C18.3316866,2.93133084 17.5623973,3.22748469 16.9400004,3.78970316 L13.7125157,6.84156862 C13.6234385,5.98319629 13.1502972,5.24281166 12.4689064,4.76849165 C13.0612141,4.26526702 13.4753557,3.52488239 13.4753557,2.69541468 C13.4753557,1.21464541 12.260651,-5.92307706e-05 10.7798818,-5.92307706e-05 C9.29911252,-5.92307706e-05 8.08440788,1.21464541 8.08440788,2.69541468 C8.08440788,3.52488239 8.46964481,4.26526702 9.09085713,4.76849165 C8.32038327,5.30180551 7.81715864,6.19026706 7.81715864,7.19671632 L7.81715864,12.349201 L5.80538552,14.2152072 L3.40606546,14.2152072 C1.62914175,14.2152072 0.148372488,15.6658873 0.148372488,17.4728996 C0.148372488,19.279912 1.59905252,20.730592 3.40606546,20.730592 L7.10798862,20.730592 C7.93745633,20.730592 8.70674558,20.4344382 9.32914252,19.8722197 L20.434912,9.4467156 L22.8340544,9.4467156 Z M9.24000021,2.69529622 C9.24000021,1.83692389 9.92139099,1.1555331 10.7797633,1.1555331 C11.6381356,1.1555331 12.3195264,1.83692389 12.3195264,2.69529622 C12.3195264,3.55366854 11.6381356,4.23505933 10.7797633,4.23505933 C9.95145061,4.23505933 9.24000021,3.52360893 9.24000021,2.69529622 Z M8.97392374,7.19653862 C8.97392374,6.19008937 9.80339145,5.38952628 10.7809361,5.38952628 C11.7873853,5.38952628 12.5879484,6.21899399 12.5879484,7.19653862 L12.5879484,7.87792941 L8.97398297,11.2836987 L8.97392374,7.19653862 Z M19.8125624,8.47023712 L8.52969296,19.012722 C8.14445603,19.3678697 7.6412314,19.5749404 7.10791755,19.5749404 L3.40599439,19.5760954 C2.25146732,19.5760954 1.30282729,18.62864 1.30282729,17.4729292 C1.30282729,16.3184031 2.2502827,15.369763 3.40599439,15.369763 L6.04128983,15.369763 C6.18936676,15.369763 6.33744368,15.3107633 6.42652676,15.2216861 L17.7393078,4.67801664 C18.1245447,4.32286894 18.6277693,4.11579817 19.1610832,4.11579817 L22.8327987,4.11579817 C23.9873249,4.11579817 24.9359649,5.06325358 24.9359649,6.21896437 C24.9359649,7.37349055 23.9885095,8.32213057 22.8327987,8.32213057 L20.1975032,8.32213057 C20.0795037,8.32213057 19.9314268,8.38113034 19.8122663,8.4702075 L19.8125624,8.47023712 Z"
                            id="Fill-1" stroke="#0F5B69" stroke-width="0.600000024" fill="#FFFFFF"></path>
                    </g>
                </g>
            </g>
        </g>
    </g>
</svg>