<?xml version="1.0" encoding="UTF-8"?>
<svg width="24px" height="24px" viewBox="0 0 24 24" version="1.1" xmlns="http://www.w3.org/2000/svg"
    xmlns:xlink="http://www.w3.org/1999/xlink">
    <title>Fill 1</title>
    <defs>
        <path
            d="M365,0 L660,0 C671.045695,-2.02906125e-15 680,8.954305 680,20 L680,384 L680,384 L345,384 L345,20 C345,8.954305 353.954305,2.02906125e-15 365,0 Z"
            id="path-1"></path>
        <filter x="-4.0%" y="-5.9%" width="110.4%" height="109.1%" filterUnits="objectBoundingBox" id="filter-2">
            <feOffset dx="4" dy="-5" in="SourceAlpha" result="shadowOffsetOuter1"></feOffset>
            <feGaussianBlur stdDeviation="5" in="shadowOffsetOuter1" result="shadowBlurOuter1"></feGaussianBlur>
            <feColorMatrix values="0 0 0 0 0.262745098   0 0 0 0 0.184313725   0 0 0 0 0.141176471  0 0 0 0.11756993 0"
                type="matrix" in="shadowBlurOuter1"></feColorMatrix>
        </filter>
    </defs>
    <g id="Mobile-" stroke="none" stroke-width="1" fill="none" fill-rule="evenodd">
        <g id="1.2.1-Map" transform="translate(-275.000000, -676.000000)">
            <g id="Card" transform="translate(-325.000000, 653.000000)">
                <path
                    d="M612,23 C605.37288,23 600,28.3728802 600,35 C600,41.6271207 605.37288,47 612,47 C618.627121,47 624,41.6271207 624,35 C624,28.3728802 618.627121,23 612,23 Z M610.613448,40.1796807 L610.613448,34.6858405 C610.613448,33.9208404 611.234064,33.2992884 612,33.2992884 C612.765937,33.2992884 613.386553,33.9208404 613.386553,34.6858405 L613.386553,40.1796807 C613.386553,40.9456167 612.765937,41.5662327 612,41.5662327 C611.234064,41.5662327 610.613448,40.9456167 610.613448,40.1796807 Z M612,31.7861603 C611.325936,31.7861603 610.718448,31.3802243 610.460616,30.7577123 C610.201872,30.1352003 610.344365,29.4180323 610.821552,28.9417762 C611.297808,28.4645842 612.015,28.3220962 612.637489,28.5799042 C613.260937,28.8377122 613.666873,29.4461603 613.666873,30.1202243 C613.666873,30.5617763 613.490624,30.9855443 613.178425,31.2986723 C612.866233,31.6108643 612.441552,31.7861603 611.999976,31.7861603 L612,31.7861603 Z"
                    id="Fill-1" fill="#2289AD"></path>
            </g>
        </g>
    </g>
</svg>