<?xml version="1.0" encoding="UTF-8"?>
<svg width="28px" height="24px" viewBox="0 0 28 24" version="1.1" xmlns="http://www.w3.org/2000/svg"
    xmlns:xlink="http://www.w3.org/1999/xlink">
    <title>Fill 1</title>
    <defs>
        <path
            d="M365,0 L660,0 C671.045695,-2.02906125e-15 680,8.954305 680,20 L680,384 L680,384 L345,384 L345,20 C345,8.954305 353.954305,2.02906125e-15 365,0 Z"
            id="path-1"></path>
        <filter x="-4.0%" y="-5.9%" width="110.4%" height="109.1%" filterUnits="objectBoundingBox" id="filter-2">
            <feOffset dx="4" dy="-5" in="SourceAlpha" result="shadowOffsetOuter1"></feOffset>
            <feGaussianBlur stdDeviation="5" in="shadowOffsetOuter1" result="shadowBlurOuter1"></feGaussianBlur>
            <feColorMatrix values="0 0 0 0 0.262745098   0 0 0 0 0.184313725   0 0 0 0 0.141176471  0 0 0 0.11756993 0"
                type="matrix" in="shadowBlurOuter1"></feColorMatrix>
        </filter>
    </defs>
    <g id="Mobile-" stroke="none" stroke-width="1" fill="none" fill-rule="evenodd">
        <g id="1.2.1-Map" transform="translate(-242.000000, -676.000000)">
            <g id="Card" transform="translate(-325.000000, 653.000000)">
                <path
                    d="M582.119619,23.6280099 C581.618823,22.7906634 580.409982,22.7906634 579.909186,23.6280099 L567.177388,45.121562 C566.676592,45.9589086 567.294818,46.9994094 568.297576,46.9994094 L593.732585,46.9994094 C594.704261,47.02875 595.323625,45.9589086 594.82168,45.121562 L582.119619,23.6280099 Z M579.820769,29.6079427 C579.820769,28.9725947 580.351508,28.4523443 580.999666,28.4523443 C581.647824,28.4523443 582.178564,28.9725947 582.178564,29.6079427 L582.178564,37.8415811 C582.178564,38.4769291 581.647824,38.9971795 580.999666,38.9971795 C580.351508,38.9971795 579.820769,38.4769291 579.820769,37.8415811 L579.820769,29.6079427 Z M580.999666,44.0234547 C580.056784,44.0234547 579.290029,43.2718535 579.290029,42.3476059 C579.290029,41.4233583 580.056784,40.6717571 580.999666,40.6717571 C581.942548,40.6717571 582.709303,41.4233583 582.709303,42.3476059 C582.709303,43.2729802 581.942548,44.0234547 580.999666,44.0234547 Z"
                    id="Fill-1" fill="#F0BE4A"></path>
            </g>
        </g>
    </g>
</svg>